<svg width="8" height="11" viewBox="0 0 8 11" fill="none" xmlns="http://www.w3.org/2000/svg">
                            <path d="M3.99983 0C1.79443 0 4.15684e-08 1.79443 4.15684e-08 4.00006C4.15684e-08 4.57537 0.117753 5.12466 0.349813 5.63281C1.34988 7.8212 3.26729 10.1317 3.83126 10.7876C3.87352 10.8366 3.93512 10.8649 3.99994 10.8649C4.06477 10.8649 4.12637 10.8366 4.16862 10.7876C4.73237 10.1318 6.64978 7.82143 7.65019 5.63281C7.88236 5.12466 8 4.57537 8 4.00006C7.99978 1.79443 6.20535 0 3.99983 0ZM3.99983 6.0777C2.85421 6.0777 1.92208 5.14557 1.92208 3.99995C1.92208 2.85421 2.85421 1.92208 3.99983 1.92208C5.14545 1.92208 6.07759 2.85421 6.07759 3.99995C6.0777 5.14557 5.14557 6.0777 3.99983 6.0777Z" fill="#2A74DB"/>
                        </svg>